HIERARCHY
ROOT Hips
{
	OFFSET -0.001795 -0.223333 0.028219
	CHANNELS 6 Xposition Yposition Zposition Zrotation Yrotation Xrotation 
	JOINT LeftUpLeg
	{
		OFFSET 0.069520 -0.091406 -0.006815
		CHANNELS 3 Zrotation Yrotation Xrotation
		JOINT LeftLeg
		{
			OFFSET 0.034277 -0.375199 -0.004496
			CHANNELS 3 Zrotation Yrotation Xrotation
			JOINT LeftFoot
			{
				OFFSET -0.013596 -0.397961 -0.043693
				CHANNELS 3 Zrotation Yrotation Xrotation
				JOINT LeftToe
				{
					OFFSET 0.026358 -0.055791 0.119288
					CHANNELS 3 Zrotation Yrotation Xrotation
					End Site
					{
						OFFSET 0.000000 0.000000 0.000000
					}
				}
			}
		}
	}
	JOINT RightUpLeg
	{
		OFFSET -0.067670 -0.090522 -0.004320
		CHANNELS 3 Zrotation Yrotation Xrotation
		JOINT RightLeg
		{
			OFFSET -0.038290 -0.382569 -0.008850
			CHANNELS 3 Zrotation Yrotation Xrotation
			JOINT RightFoot
			{
				OFFSET 0.015774 -0.398415 -0.042312
				CHANNELS 3 Zrotation Yrotation Xrotation
				JOINT RightToe
				{
					OFFSET -0.025372 -0.048144 0.123348
					CHANNELS 3 Zrotation Yrotation Xrotation
					End Site
					{
						OFFSET 0.000000 0.000000 0.000000
					}
				}
			}
		}
	}
	JOINT Spine
	{
		OFFSET -0.002533 0.108963 -0.026696
		CHANNELS 3 Zrotation Yrotation Xrotation
		JOINT Spine1
		{
			OFFSET 0.005487 0.135180 0.001092
			CHANNELS 3 Zrotation Yrotation Xrotation
			JOINT Spine2
			{
				OFFSET 0.001457 0.052922 0.025425
				CHANNELS 3 Zrotation Yrotation Xrotation
				JOINT Neck
				{
					OFFSET -0.002778 0.213870 -0.042857
					CHANNELS 3 Zrotation Yrotation Xrotation
					JOINT Head
					{
						OFFSET 0.005152 0.064970 0.051349
						CHANNELS 3 Zrotation Yrotation Xrotation
						End Site
						{
							OFFSET 0.000000 0.000000 0.000000
						}
					}
				}
				JOINT LeftShoulder
				{
					OFFSET 0.078845 0.121749 -0.034090
					CHANNELS 3 Zrotation Yrotation Xrotation
					JOINT LeftArm
					{
						OFFSET 0.090977 0.030469 -0.008868
						CHANNELS 3 Zrotation Yrotation Xrotation
						JOINT LeftForeArm
						{
							OFFSET 0.259612 -0.012772 -0.027456
							CHANNELS 3 Zrotation Yrotation Xrotation
							JOINT LeftHand
							{
								OFFSET 0.249234 0.008986 -0.001171
								CHANNELS 3 Zrotation Yrotation Xrotation
								End Site
								{
									OFFSET 0.000000 0.000000 0.000000
								}
							}
						}
					}
				}
				JOINT RightShoulder
				{
					OFFSET -0.081759 0.118833 -0.038615
					CHANNELS 3 Zrotation Yrotation Xrotation
					JOINT RightArm
					{
						OFFSET -0.096012 0.032551 -0.009143
						CHANNELS 3 Zrotation Yrotation Xrotation
						JOINT RightForeArm
						{
							OFFSET -0.253742 -0.013329 -0.021401
							CHANNELS 3 Zrotation Yrotation Xrotation
							JOINT RightHand
							{
								OFFSET -0.255298 0.007772 -0.005559
								CHANNELS 3 Zrotation Yrotation Xrotation
								End Site
								{
									OFFSET 0.000000 0.000000 0.000000
								}
							}
						}
					}
				}
			}
		}
	}
}
MOTION
Frames: 15
Frame Time: 0.050000
0.000000 0.938738 0.000000 0.277517 -1.747345 4.575893 7.401292 -0.198568 -2.032799 1.089461 0.053904 -4.001592 -0.701956 1.357419 6.724190 0.000000 0.000000 0.000000 -5.703535 0.376043 -3.114634 -6.449773 0.022090 -6.646529 0.184751 -6.011898 15.486871 0.000000 0.000000 0.000000 5.400323 0.214205 -3.829024 -3.177735 1.474832 -2.638868 -5.014841 4.193387 4.738931 5.206921 -2.581146 -9.336460 0.000000 0.000000 0.000000 -18.315913 -3.684714 -0.860070 -52.960655 -5.519491 -3.711946 -2.820075 -15.993386 0.890953 0.000000 0.000000 0.000000 15.067431 -4.785874 -3.003098 64.211085 3.337789 -4.205919 3.575608 22.395514 1.590581 0.000000 0.000000 0.000000 
0.000124 0.938176 0.000126 0.448769 -2.125506 5.252327 7.205506 -0.188653 -1.472278 1.034117 0.153432 -6.142340 -0.658989 1.647019 7.382533 0.000000 0.000000 0.000000 -5.832548 0.432098 -3.927331 -6.639525 0.023167 -6.672607 0.297224 -5.840436 15.386725 0.000000 0.000000 0.000000 6.697499 0.260989 -4.277373 -4.053273 1.850327 -3.081784 -6.639568 4.985386 4.264521 4.901711 -2.143960 -10.278923 0.000000 0.000000 0.000000 -18.977070 -3.544320 -1.267333 -52.024537 -5.637366 -3.469958 -1.836416 -15.168119 0.693230 0.000000 0.000000 0.000000 15.330752 -6.159502 -3.581079 65.619150 2.461954 -4.636026 3.452066 21.857114 1.560044 0.000000 0.000000 0.000000 
0.000138 0.938043 0.000033 0.877332 -1.666241 5.299255 6.555541 -0.214196 -2.113772 1.419436 0.093286 -5.336775 -0.816431 1.319982 7.174923 0.000000 0.000000 0.000000 -6.243731 0.428135 -3.895266 -6.729268 0.034615 -6.623472 0.028644 -6.213636 15.304648 0.000000 0.000000 0.000000 6.336191 0.265593 -4.410970 -3.726534 1.699349 -3.620026 -7.113702 4.019177 4.448168 4.372489 -1.947348 -9.534977 0.000000 0.000000 0.000000 -18.679408 -3.931871 -0.853072 -52.188887 -5.629557 -3.547930 -1.012890 -14.087707 0.563866 0.000000 0.000000 0.000000 16.366870 -4.781723 -3.079039 64.021782 2.273610 -4.774984 4.063566 21.698074 1.620002 0.000000 0.000000 0.000000 
0.000023 0.938073 0.000011 1.160589 -1.179668 5.557653 6.594619 -0.232255 -2.313229 0.886902 0.143305 -5.705298 -1.101465 0.932519 7.418981 0.000000 0.000000 0.000000 -6.321153 0.448499 -4.395858 -7.113273 0.117458 -5.991826 -0.281734 -6.638597 15.154421 0.000000 0.000000 0.000000 6.436007 0.282617 -4.663703 -4.093668 1.875688 -2.921118 -7.457057 3.231033 3.124662 3.874135 -1.821796 -8.113749 0.000000 0.000000 0.000000 -18.949935 -3.964751 -0.822232 -52.157480 -6.268196 -3.141943 0.481185 -12.977755 0.355937 0.000000 0.000000 0.000000 15.565716 -4.644216 -3.038230 64.593656 1.673000 -4.975466 4.509821 22.297881 1.716509 0.000000 0.000000 0.000000 
-0.000221 0.938440 -0.000065 1.460195 -0.573355 5.573017 6.151914 -0.249391 -2.584689 1.198598 0.117088 -5.521394 -1.407300 0.475537 7.536852 0.000000 0.000000 0.000000 -6.436413 0.440102 -4.396842 -7.416998 0.164844 -5.723244 -0.593542 -7.104438 15.192626 0.000000 0.000000 0.000000 6.042615 0.265710 -4.592276 -3.808143 1.749951 -3.135747 -7.787469 2.930358 3.143765 3.464538 -1.496768 -8.349552 0.000000 0.000000 0.000000 -19.070023 -4.273973 -0.699120 -51.880798 -7.063048 -2.771801 -0.240485 -12.373608 0.416974 0.000000 0.000000 0.000000 15.477483 -4.759085 -3.071783 64.409715 1.625255 -4.975544 5.039719 22.083644 1.793339 0.000000 0.000000 0.000000 
-0.000486 0.938906 -0.000099 1.658245 -0.331150 5.824524 6.011771 -0.262221 -2.747125 1.121922 0.135740 -5.830095 -1.586703 0.302186 7.858756 0.000000 0.000000 0.000000 -6.396137 0.451143 -4.642829 -7.832450 0.196046 -5.648795 -0.710853 -7.317260 15.357892 0.000000 0.000000 0.000000 5.907949 0.283243 -4.869845 -3.921819 1.801711 -3.044908 -7.881458 2.687604 2.833725 3.489453 -1.516034 -8.343521 0.000000 0.000000 0.000000 -19.544101 -4.444128 -0.659021 -51.419764 -7.408899 -2.548377 0.107614 -11.665415 0.360259 0.000000 0.000000 0.000000 15.137319 -4.517374 -2.937948 64.855900 1.511844 -5.018138 4.877739 22.030065 1.750384 0.000000 0.000000 0.000000 
-0.000765 0.939200 -0.000139 1.757648 0.064944 5.885089 5.905001 -0.272552 -2.875263 1.203127 0.133664 -5.881719 -1.800234 0.013163 8.004509 0.000000 0.000000 0.000000 -6.319229 0.441437 -4.526997 -8.094113 0.198849 -5.775063 -0.883541 -7.602725 15.532271 0.000000 0.000000 0.000000 5.667042 0.281452 -4.932269 -3.823086 1.761974 -2.929718 -8.039708 2.238731 2.589708 3.491355 -1.463259 -8.798415 0.000000 0.000000 0.000000 -19.570837 -4.580446 -0.550011 -51.312470 -7.544863 -2.466636 -0.591489 -11.700299 0.433627 0.000000 0.000000 0.000000 15.161588 -4.305403 -2.872098 65.011010 1.405727 -5.069987 4.969192 22.416575 1.790999 0.000000 0.000000 0.000000 
-0.000985 0.939515 -0.000163 1.865348 0.533356 6.076322 5.774510 -0.296349 -3.265199 1.316165 0.121835 -5.745835 -2.027439 -0.309689 8.106491 0.000000 0.000000 0.000000 -6.287622 0.445679 -4.699671 -8.292458 0.232144 -5.593981 -1.120851 -7.967711 15.637592 0.000000 0.000000 0.000000 5.559710 0.281998 -5.035829 -3.751218 1.731497 -2.959271 -8.319513 2.006026 2.272593 3.541753 -1.489247 -8.789741 0.000000 0.000000 0.000000 -19.519042 -4.883469 -0.421696 -51.176402 -7.684113 -2.359273 -1.192709 -11.780632 0.494737 0.000000 0.000000 0.000000 15.060729 -4.314130 -2.857474 65.348372 1.173687 -5.172394 5.102223 22.633932 1.834746 0.000000 0.000000 0.000000 
-0.001209 0.939835 -0.000151 1.988893 0.792709 6.174622 5.722413 -0.308921 -3.466817 1.227051 0.124120 -5.679313 -2.174199 -0.495965 8.230417 0.000000 0.000000 0.000000 -6.310516 0.437834 -4.575678 -8.441984 0.210856 -5.866853 -1.222880 -8.154213 15.847915 0.000000 0.000000 0.000000 5.424326 0.280982 -5.087472 -3.726580 1.719741 -3.124002 -8.365789 1.885477 2.135761 3.504799 -1.452285 -8.841712 0.000000 0.000000 0.000000 -19.376483 -5.003830 -0.359149 -51.335725 -7.780887 -2.311335 -1.748059 -12.000138 0.558920 0.000000 0.000000 0.000000 15.205301 -4.138929 -2.777717 65.243676 1.098953 -5.193969 5.117095 22.852614 1.858470 0.000000 0.000000 0.000000 
-0.001420 0.939913 -0.000053 2.090644 1.147891 6.195836 5.766442 -0.322223 -3.694770 1.025399 0.125424 -5.440049 -2.338609 -0.761036 8.225205 0.000000 0.000000 0.000000 -6.331137 0.429507 -4.500470 -8.543769 0.221837 -5.840318 -1.401856 -8.417939 15.889955 0.000000 0.000000 0.000000 5.429397 0.285690 -5.173510 -3.731047 1.723372 -3.154020 -8.568018 1.778896 1.993981 3.515473 -1.408544 -9.133826 0.000000 0.000000 0.000000 -19.223942 -5.351665 -0.200420 -51.343687 -7.947668 -2.220666 -2.341528 -12.254422 0.630068 0.000000 0.000000 0.000000 15.364704 -4.029861 -2.714917 65.232187 1.111487 -5.167511 5.069363 22.916722 1.859694 0.000000 0.000000 0.000000 
-0.001647 0.939936 0.000078 2.142337 1.198423 6.194645 5.861681 -0.322854 -3.699209 0.789688 0.138718 -5.433504 -2.374257 -0.806823 8.256859 0.000000 0.000000 0.000000 -6.493751 0.426367 -4.463366 -8.321283 0.208512 -5.858774 -1.437638 -8.462019 15.849740 0.000000 0.000000 0.000000 5.499762 0.293935 -5.260335 -3.754744 1.734481 -3.110461 -8.622046 1.842624 1.804817 3.551567 -1.420817 -9.154939 0.000000 0.000000 0.000000 -19.332166 -5.546093 -0.146818 -51.365017 -8.027278 -2.158597 -2.523260 -12.607157 0.664515 0.000000 0.000000 0.000000 15.496905 -3.917462 -2.652790 65.161424 1.315688 -5.027698 4.862347 22.727909 1.805782 0.000000 0.000000 0.000000 
-0.001882 0.939777 0.000273 2.144666 1.425924 6.210591 6.040830 -0.326378 -3.723868 0.531220 0.155306 -5.482158 -2.481574 -0.979571 8.256426 0.000000 0.000000 0.000000 -6.468254 0.417491 -4.323675 -8.320539 0.193876 -5.998528 -1.550680 -8.623171 15.858661 0.000000 0.000000 0.000000 5.495024 0.302923 -5.389225 -3.658117 1.694287 -3.042722 -8.678324 1.702173 1.561375 3.429416 -1.324335 -9.238124 0.000000 0.000000 0.000000 -19.405014 -5.610954 -0.132516 -51.419861 -8.148664 -2.080919 -2.794055 -12.620951 0.693310 0.000000 0.000000 0.000000 15.356301 -3.963104 -2.669800 65.232170 1.339872 -4.984468 4.882346 22.473742 1.780925 0.000000 0.000000 0.000000 
-0.002135 0.939772 0.000458 2.064798 1.568082 6.198107 6.132918 -0.323751 -3.619605 0.573394 0.160223 -5.675710 -2.558790 -1.080841 8.309167 0.000000 0.000000 0.000000 -6.348770 0.411571 -4.228218 -8.326891 0.188382 -6.059174 -1.612136 -8.713973 15.887547 0.000000 0.000000 0.000000 5.530267 0.314702 -5.527109 -3.576030 1.659831 -2.961887 -8.637650 1.673669 1.331220 3.368308 -1.297760 -9.093063 0.000000 0.000000 0.000000 -19.592385 -5.724602 -0.115248 -51.262425 -8.100003 -2.061872 -3.019715 -12.589138 0.714380 0.000000 0.000000 0.000000 15.454065 -3.942872 -2.664236 65.078613 1.337626 -4.951932 4.731163 22.176139 1.725012 0.000000 0.000000 0.000000 
-0.002419 0.939705 0.000571 2.049550 1.722718 6.157971 6.133448 -0.327957 -3.697414 0.657319 0.149005 -5.505808 -2.611311 -1.192594 8.239304 0.000000 0.000000 0.000000 -6.191063 0.407611 -4.189190 -8.527965 0.211193 -5.961291 -1.692328 -8.824170 15.860578 0.000000 0.000000 0.000000 5.525263 0.315125 -5.537366 -3.515700 1.634735 -2.929645 -8.663841 1.605039 1.115755 3.205612 -1.210385 -8.900077 0.000000 0.000000 0.000000 -19.623299 -5.697997 -0.151410 -51.124875 -8.092647 -2.031874 -3.261450 -12.704123 0.745095 0.000000 0.000000 0.000000 15.476208 -3.929102 -2.658669 64.927695 1.231003 -4.975903 4.656169 22.161307 1.708389 0.000000 0.000000 0.000000 
-0.002713 0.939693 0.000593 2.041209 1.780100 6.130823 6.149275 -0.329525 -3.731302 0.687564 0.143699 -5.413398 -2.631160 -1.233545 8.216150 0.000000 0.000000 0.000000 -6.194609 0.406780 -4.197285 -8.462630 0.219636 -5.864162 -1.730631 -8.869427 15.801946 0.000000 0.000000 0.000000 5.585054 0.320940 -5.591515 -3.545064 1.648121 -2.924799 -8.705559 1.648934 1.012911 3.129363 -1.158065 -8.860692 0.000000 0.000000 0.000000 -19.597194 -5.655861 -0.198396 -51.024566 -7.893810 -2.097000 -3.485633 -12.741882 0.769685 0.000000 0.000000 0.000000 15.438545 -4.167326 -2.764099 64.848269 0.972644 -5.093109 4.927107 22.077453 1.750786 0.000000 0.000000 0.000000 
